# xmcd
#
# Track frame offsets: 
#        150
#        18336
#        42916
#        58048
#        77134
#        94118
#        109400
#        131863
#        147091
#        158541
#
# Disc length: 2471 seconds
#
# Revision: 1
# Processed by: cddbd v1.5.1PL2 Copyright (c) Steve Scherf et al.
# Submitted via: ExactAudioCopy v0.95b3
#
DISCID=8109a50a
DTITLE=Various Artist - Oko³o Pó³nocy - Legendy Jazzu
DYEAR=2005
DGENRE=Jazz
TTITLE0=SARAH VAUGHAN and CLIFFORD BROWN - Lullaby of Birdland
TTITLE1=STAN GETZ with LUIS BONFA and JOAO GLIBERTO - O grande amor
TTITLE2=ANITA O'DAY and OSCAR PETERSON - Tenderly
TTITLE3=GERRY MULIGAN - Prelude in E-minor
TTITLE4=BILLIE HOLIDAY - Just One More Chance
TTITLE5=MARIA TOLEDO and STAN GETZ- Haw Insensitive
TTITLE6=BEN WEBSTER - When I Fall In Love
TTITLE7=CHET BAKER - Easy Leaving
TTITLE8=SHIRLEY HORN - And I Love Him
TTITLE9=ELLA FITZGERALD and LUIS ARMSTRONG - Autumn In New York
EXTD=YEAR: 2005
EXTT0=
EXTT1=
EXTT2=
EXTT3=
EXTT4=
EXTT5=
EXTT6=
EXTT7=
EXTT8=
EXTT9=
PLAYORDER=
